<svg xmlns="http://www.w3.org/2000/svg" xmlns:xlink="http://www.w3.org/1999/xlink" viewBox="0 0 63.5 52.2"><defs><style>.cls-1{fill:url(#linear-gradient);}.cls-2{fill:url(#linear-gradient-2);}.cls-3{fill:url(#linear-gradient-3);}.cls-4{fill:#b7ceed;}.cls-5{fill:#e0e5f4;}.cls-6{fill:#fff;}.cls-7{fill:#c3d4e3;}.cls-8{fill:#d3e5f9;}.cls-9{fill:url(#linear-gradient-4);}.cls-10{fill:url(#linear-gradient-5);}.cls-11{fill:#aac1d6;}.cls-12{fill:#e1e2e3;}.cls-13{fill:url(#linear-gradient-6);}.cls-14{fill:url(#linear-gradient-7);}.cls-15{fill:url(#linear-gradient-8);}.cls-16{fill:url(#linear-gradient-9);}.cls-17{fill:#e3eaf0;}.cls-18{fill:url(#linear-gradient-10);}.cls-19{fill:url(#linear-gradient-11);}.cls-20{fill:url(#linear-gradient-12);}.cls-21{fill:url(#linear-gradient-13);}.cls-22{fill:url(#linear-gradient-14);}.cls-23{fill:none;stroke-miterlimit:10;stroke-width:0.25px;stroke:url(#radial-gradient);}</style><linearGradient id="linear-gradient" x1="1308.52" y1="8431.64" x2="1308.52" y2="8452.35" gradientTransform="translate(-1296.93 -8423.85)" gradientUnits="userSpaceOnUse"><stop offset="0.05" stop-color="#2adff6" stop-opacity="0"></stop><stop offset="0.14" stop-color="#29dff4" stop-opacity="0.04"></stop><stop offset="0.28" stop-color="#24deed" stop-opacity="0.13"></stop><stop offset="0.45" stop-color="#1edde3" stop-opacity="0.29"></stop><stop offset="0.64" stop-color="#14dcd4" stop-opacity="0.51"></stop><stop offset="0.86" stop-color="#09dac2" stop-opacity="0.79"></stop><stop offset="1" stop-color="#00d9b4"></stop></linearGradient><linearGradient id="linear-gradient-2" x1="1.29" y1="36.52" x2="5.56" y2="36.52" gradientUnits="userSpaceOnUse"><stop offset="0" stop-color="#2adff6"></stop><stop offset="1" stop-color="#017eff"></stop></linearGradient><linearGradient id="linear-gradient-3" x1="57.94" y1="35.79" x2="62.21" y2="35.79" gradientUnits="userSpaceOnUse"><stop offset="0" stop-color="#017eff"></stop><stop offset="1" stop-color="#2adff6"></stop></linearGradient><linearGradient id="linear-gradient-4" x1="5.48" y1="28.54" x2="31.82" y2="42.92" xlink:href="#linear-gradient-2"></linearGradient><linearGradient id="linear-gradient-5" x1="37.35" y1="31.64" x2="52.35" y2="39.82" xlink:href="#linear-gradient-2"></linearGradient><linearGradient id="linear-gradient-6" x1="1304.67" y1="8420.94" x2="1304.67" y2="8435.69" gradientTransform="translate(-1289.23 -8396.44)" xlink:href="#linear-gradient"></linearGradient><linearGradient id="linear-gradient-7" x1="1275.99" y1="8416.36" x2="1275.99" y2="8431.1" gradientTransform="translate(-1231.88 -8387.27)" xlink:href="#linear-gradient"></linearGradient><linearGradient id="linear-gradient-8" x1="1267.75" y1="8439.42" x2="1267.75" y2="8460.14" gradientTransform="translate(-1215.4 -8439.42)" xlink:href="#linear-gradient"></linearGradient><linearGradient id="linear-gradient-9" x1="48.9" y1="7.11" x2="31.09" y2="24.99" xlink:href="#linear-gradient-2"></linearGradient><linearGradient id="linear-gradient-10" x1="44.3" y1="10.46" x2="23.54" y2="31.29" xlink:href="#linear-gradient-2"></linearGradient><linearGradient id="linear-gradient-11" x1="31.75" y1="27.31" x2="46.28" y2="27.31" xlink:href="#linear-gradient-2"></linearGradient><linearGradient id="linear-gradient-12" x1="17.22" y1="27.31" x2="31.75" y2="27.31" xlink:href="#linear-gradient-2"></linearGradient><linearGradient id="linear-gradient-13" x1="21.74" y1="14.13" x2="47.12" y2="14.13" xlink:href="#linear-gradient-2"></linearGradient><linearGradient id="linear-gradient-14" x1="37.19" y1="11.66" x2="14.51" y2="0.78" xlink:href="#linear-gradient-2"></linearGradient><radialGradient id="radial-gradient" cx="33.45" cy="10.51" r="10.01" xlink:href="#linear-gradient-2"></radialGradient></defs><g id="Layer_2" data-name="Layer 2"><g id="Cover_Depan" data-name="Cover Depan"><rect class="cls-1" x="11.14" y="7.79" width="0.9" height="20.88" rx="0.45" transform="translate(23.18 36.46) rotate(180)"></rect><polygon class="cls-2" points="5.56 38.71 5.56 34.32 1.29 36.52 5.56 38.71"></polygon><polygon class="cls-3" points="57.95 34.32 57.95 32.87 57.94 32.88 57.94 38.71 62.21 36.52 57.95 34.32"></polygon><polygon class="cls-4" points="1.29 36.52 5.56 34.32 5.56 32.99 0 35.85 1.29 36.52"></polygon><polygon class="cls-4" points="57.95 32.99 57.95 34.32 62.21 36.52 63.51 35.85 57.95 32.99"></polygon><polygon class="cls-5" points="57.94 24.88 31.75 38.37 31.75 38.37 5.56 24.88 31.75 11.4 31.75 11.4 57.94 24.88"></polygon><polygon class="cls-6" points="31.75 38.98 31.75 49.06 5.56 35.58 5.56 25.5 31.75 38.98"></polygon><polygon class="cls-6" points="57.95 24.88 57.95 25.5 31.75 38.98 5.56 25.5 5.56 24.88 31.75 38.37 31.75 38.37 57.95 24.88"></polygon><polygon class="cls-6" points="57.95 25.5 57.95 34.97 49.6 39.27 31.75 48.45 31.75 48.45 31.75 48.45 31.75 48.45 13.91 39.27 5.56 34.97 5.56 25.5 31.75 38.98 57.95 25.5"></polygon><polygon class="cls-6" points="57.95 25.5 57.95 35.58 31.75 49.06 31.75 38.98 57.95 25.5"></polygon><polygon class="cls-7" points="31.75 38.98 31.75 49.06 5.56 35.58 5.56 25.5 31.75 38.98"></polygon><polygon class="cls-8" points="57.95 25.5 57.95 35.58 31.75 49.06 31.75 38.98 37.44 36.05 46.3 31.49 57.95 25.5"></polygon><polygon class="cls-9" points="5.56 28.9 5.56 29.56 31.75 43.05 31.75 42.38 31.75 41.89 5.56 28.41 5.56 28.9"></polygon><polygon class="cls-10" points="31.75 41.89 31.75 42.38 31.75 43.05 57.95 29.56 57.95 28.9 57.95 28.41 31.75 41.89"></polygon><polygon class="cls-11" points="5.56 38.71 31.75 52.2 31.75 49.06 5.56 35.58 5.56 38.71"></polygon><polygon class="cls-4" points="57.95 35.58 57.95 38.71 48.13 43.77 41.34 47.26 31.75 52.2 31.75 49.06 41.34 44.13 48.13 40.63 57.95 35.58"></polygon><polygon class="cls-6" points="31.75 44.49 31.75 44.98 57.95 31.5 57.95 31.01 31.75 44.49"></polygon><polygon class="cls-12" points="5.56 31.5 31.75 44.98 31.75 44.49 5.56 31.01 5.56 31.5"></polygon><rect class="cls-13" x="14.99" y="24.5" width="0.9" height="14.86" rx="0.45" transform="translate(30.88 63.86) rotate(180)"></rect><rect class="cls-14" x="43.67" y="29.09" width="0.9" height="14.86" rx="0.45" transform="translate(88.25 73.03) rotate(-180)"></rect><rect class="cls-15" x="51.91" width="0.9" height="20.88" rx="0.45" transform="translate(104.71 20.88) rotate(-180)"></rect><path class="cls-16" d="M44.22,23.06,42,21.94l-10.25-5.2L21.5,21.94l-2.21,1.12h0v2.53h0L20.51,25l1,.5,10.25,5.19L42,25.47l1-.5,1.23.62h0V23.06Zm-5.7.64-6.77,3.43L25,23.7l-1-.5,7.75-3.93,7.76,3.93Z"></path><polygon class="cls-17" points="46.28 21.57 46.28 25.69 46.28 25.69 31.75 33.05 31.75 28.93 42.22 23.63 46.28 21.57 46.28 21.57"></polygon><polygon class="cls-18" points="46.28 21.57 43.7 20.27 31.75 14.21 19.8 20.27 17.23 21.57 17.22 21.57 17.22 21.57 17.22 23.07 17.22 24.52 17.23 24.52 18.65 23.8 19.8 24.38 31.75 30.43 43.7 24.38 44.85 23.8 46.28 24.52 46.28 24.52 46.28 23.07 46.28 21.57 46.28 21.57 46.28 21.57"></polygon><polygon class="cls-19" points="46.28 21.57 46.28 25.69 46.28 25.69 31.75 33.05 31.75 28.93 42.22 23.63 46.28 21.57 46.28 21.57"></polygon><polygon class="cls-20" points="31.75 28.93 31.75 33.05 17.23 25.69 17.22 25.69 17.22 21.57 17.23 21.57 21.29 23.63 31.75 28.93"></polygon><path class="cls-21" d="M47.08,6.93h0l0-.11s0,0,0,0L47,6.55l-.1-.21a.83.83,0,0,0-.07-.13l0-.06a4.57,4.57,0,0,0-3.07-2c-3.11-.77-2.43,3-2.43,3L42,8.44l1.5.21a5.5,5.5,0,0,0,1.74.08l.06,0c-1.74,3.72-5.19,11-5.59,11.74a4,4,0,0,1-4.49,2.2C32.52,22.09,24.1,20,22.62,19.58a2.52,2.52,0,0,1-.88-.59l.29.88a1.78,1.78,0,0,0,1.3,1.18c1.46.44,9.88,2.5,12.61,3.07a4,4,0,0,0,4.5-2.21C40.94,21,46.33,9.54,47,8.14A2,2,0,0,0,47.08,6.93Z"></path><path class="cls-5" d="M45.74,7.79c0,.06,0,.11-.06.15s0,0,0,.06c-1.59,3.42-5.49,11.69-5.92,12.45a4,4,0,0,1-4.49,2.2C32.52,22.09,24.1,20,22.62,19.58a2.52,2.52,0,0,1-.88-.59L21,16.63,23,16.22l.35.24C25.38,13,29.54,5.94,30.14,5a3.22,3.22,0,0,1,3.09-1.57c.78.08,7.38,1,10.55,1.5-.37.27-.35.55.41.76C46.05,6.17,45.9,7.31,45.74,7.79Z"></path><path class="cls-22" d="M21.19,15S28.24,3,29.05,1.67A3.23,3.23,0,0,1,32.14.1c1,.11,11.11,1.57,12.15,1.73a2.28,2.28,0,0,1,1.57,3c-.63,1.38-6,12.88-6.52,13.76a4,4,0,0,1-4.5,2.2c-2.72-.56-11.15-2.62-12.61-3.06A1.74,1.74,0,0,1,21.19,15Z"></path><path class="cls-23" d="M23,14.38S29,4.06,29.68,2.94A2.74,2.74,0,0,1,32.32,1.6c.85.09,9.52,1.34,10.41,1.48a1.93,1.93,0,0,1,1.34,2.59c-.53,1.19-5.15,11-5.58,11.78a3.4,3.4,0,0,1-3.85,1.89c-2.33-.48-9.55-2.25-10.8-2.63A1.48,1.48,0,0,1,23,14.38Z"></path><path class="cls-6" d="M32.09,11.81h2.66a.66.66,0,0,0,.33-.17c.56-.44,1.13-.87,1.66-1.33a2,2,0,0,1,2.2-.4,3.71,3.71,0,0,0,.57.2c-.09.12-.15.21-.23.3L36,14.11a1.93,1.93,0,0,1-1.52.67H29.28a1.2,1.2,0,0,1-1.34-1.33c0-1.06,0-2.12,0-3.18,0-.53.23-.76.77-.76H33a1.26,1.26,0,0,1,1.14.62,4.32,4.32,0,0,1,.34.53c.07.14.17.37.11.46a.66.66,0,0,1-.47.2c-.57,0-1.14,0-1.71,0C32.06,11.31,32,11.46,32.09,11.81Z"></path><path class="cls-6" d="M35.39,5a10.31,10.31,0,0,1,1.16-.57,1.44,1.44,0,0,1,1.8,1.34,1.58,1.58,0,0,1-.43,1.21L35.66,9.38l-.21.19-.12-.08c-.8-.87-1.62-1.71-2.4-2.59a1.53,1.53,0,0,1,.81-2.55,1.55,1.55,0,0,1,1.13.25C35.07,4.71,35.24,4.86,35.39,5Z"></path></g></g></svg>