<svg xmlns="http://www.w3.org/2000/svg" xmlns:xlink="http://www.w3.org/1999/xlink" viewBox="0 0 63.5 52.2"><defs><style>.cls-1{fill:url(#linear-gradient);}.cls-2{fill:url(#linear-gradient-2);}.cls-3{fill:url(#linear-gradient-3);}.cls-4{fill:#b7ceed;}.cls-5{fill:#e0e5f4;}.cls-6{fill:#fff;}.cls-7{fill:#c3d4e3;}.cls-8{fill:#d3e5f9;}.cls-9{fill:url(#linear-gradient-4);}.cls-10{fill:url(#linear-gradient-5);}.cls-11{fill:#aac1d6;}.cls-12{fill:#e1e2e3;}.cls-13{fill:url(#linear-gradient-6);}.cls-14{fill:url(#linear-gradient-7);}.cls-15{fill:url(#linear-gradient-8);}.cls-16{fill:url(#linear-gradient-9);}.cls-17{fill:#e3eaf0;}.cls-18{fill:url(#linear-gradient-10);}.cls-19{fill:url(#linear-gradient-11);}.cls-20{fill:url(#linear-gradient-12);}.cls-21{fill:url(#linear-gradient-13);}.cls-22{fill:url(#linear-gradient-14);}.cls-23{fill:none;stroke-miterlimit:10;stroke-width:0.25px;stroke:url(#radial-gradient);}</style><linearGradient id="linear-gradient" x1="1509" y1="8516.05" x2="1509" y2="8536.77" gradientTransform="translate(-1497.41 -8508.26)" gradientUnits="userSpaceOnUse"><stop offset="0.05" stop-color="#2adff6" stop-opacity="0"></stop><stop offset="0.14" stop-color="#29dff4" stop-opacity="0.04"></stop><stop offset="0.28" stop-color="#24deed" stop-opacity="0.13"></stop><stop offset="0.45" stop-color="#1edde3" stop-opacity="0.29"></stop><stop offset="0.64" stop-color="#14dcd4" stop-opacity="0.51"></stop><stop offset="0.86" stop-color="#09dac2" stop-opacity="0.79"></stop><stop offset="1" stop-color="#00d9b4"></stop></linearGradient><linearGradient id="linear-gradient-2" x1="1.29" y1="36.52" x2="5.56" y2="36.52" gradientUnits="userSpaceOnUse"><stop offset="0" stop-color="#2adff6"></stop><stop offset="1" stop-color="#017eff"></stop></linearGradient><linearGradient id="linear-gradient-3" x1="57.94" y1="35.79" x2="62.21" y2="35.79" gradientUnits="userSpaceOnUse"><stop offset="0" stop-color="#017eff"></stop><stop offset="1" stop-color="#2adff6"></stop></linearGradient><linearGradient id="linear-gradient-4" x1="5.48" y1="28.54" x2="31.82" y2="42.92" xlink:href="#linear-gradient-2"></linearGradient><linearGradient id="linear-gradient-5" x1="37.35" y1="31.64" x2="52.35" y2="39.82" xlink:href="#linear-gradient-2"></linearGradient><linearGradient id="linear-gradient-6" x1="1505.15" y1="8505.36" x2="1505.15" y2="8520.1" gradientTransform="translate(-1489.71 -8480.86)" xlink:href="#linear-gradient"></linearGradient><linearGradient id="linear-gradient-7" x1="1476.47" y1="8500.78" x2="1476.47" y2="8515.52" gradientTransform="translate(-1432.34 -8471.69)" xlink:href="#linear-gradient"></linearGradient><linearGradient id="linear-gradient-8" x1="1468.23" y1="8523.84" x2="1468.23" y2="8544.56" gradientTransform="translate(-1415.88 -8523.84)" xlink:href="#linear-gradient"></linearGradient><linearGradient id="linear-gradient-9" x1="48.9" y1="7.11" x2="31.09" y2="24.99" xlink:href="#linear-gradient-2"></linearGradient><linearGradient id="linear-gradient-10" x1="44.3" y1="10.46" x2="23.54" y2="31.29" xlink:href="#linear-gradient-2"></linearGradient><linearGradient id="linear-gradient-11" x1="31.75" y1="27.31" x2="46.28" y2="27.31" xlink:href="#linear-gradient-2"></linearGradient><linearGradient id="linear-gradient-12" x1="17.22" y1="27.31" x2="31.75" y2="27.31" xlink:href="#linear-gradient-2"></linearGradient><linearGradient id="linear-gradient-13" x1="21.74" y1="14.13" x2="47.12" y2="14.13" xlink:href="#linear-gradient-2"></linearGradient><linearGradient id="linear-gradient-14" x1="37.19" y1="11.66" x2="14.51" y2="0.78" xlink:href="#linear-gradient-2"></linearGradient><radialGradient id="radial-gradient" cx="33.45" cy="10.51" r="10.01" xlink:href="#linear-gradient-2"></radialGradient></defs><g id="Layer_2" data-name="Layer 2"><g id="Cover_Depan" data-name="Cover Depan"><rect class="cls-1" x="11.14" y="7.79" width="0.9" height="20.88" rx="0.45" transform="translate(23.18 36.46) rotate(180)"></rect><polygon class="cls-2" points="5.56 38.71 5.56 34.32 1.29 36.52 5.56 38.71"></polygon><polygon class="cls-3" points="57.95 34.32 57.95 32.87 57.94 32.88 57.94 38.71 62.21 36.52 57.95 34.32"></polygon><polygon class="cls-4" points="1.29 36.52 5.56 34.32 5.56 32.99 0 35.85 1.29 36.52"></polygon><polygon class="cls-4" points="57.95 32.99 57.95 34.32 62.21 36.52 63.51 35.85 57.95 32.99"></polygon><polygon class="cls-5" points="57.94 24.88 31.75 38.37 31.75 38.37 5.56 24.88 31.75 11.4 31.75 11.4 57.94 24.88"></polygon><polygon class="cls-6" points="31.75 38.98 31.75 49.06 5.56 35.58 5.56 25.5 31.75 38.98"></polygon><polygon class="cls-6" points="57.95 24.88 57.95 25.5 31.75 38.98 5.56 25.5 5.56 24.88 31.75 38.37 31.75 38.37 57.95 24.88"></polygon><polygon class="cls-6" points="57.95 25.5 57.95 34.97 49.6 39.27 31.75 48.45 31.75 48.45 31.75 48.45 31.75 48.45 13.91 39.27 5.56 34.97 5.56 25.5 31.75 38.98 57.95 25.5"></polygon><polygon class="cls-6" points="57.95 25.5 57.95 35.58 31.75 49.06 31.75 38.98 57.95 25.5"></polygon><polygon class="cls-7" points="31.75 38.98 31.75 49.06 5.56 35.58 5.56 25.5 31.75 38.98"></polygon><polygon class="cls-8" points="57.95 25.5 57.95 35.58 31.75 49.06 31.75 38.98 37.44 36.05 46.3 31.49 57.95 25.5"></polygon><polygon class="cls-9" points="5.56 28.9 5.56 29.56 31.75 43.05 31.75 42.38 31.75 41.89 5.56 28.41 5.56 28.9"></polygon><polygon class="cls-10" points="31.75 41.89 31.75 42.38 31.75 43.05 57.95 29.56 57.95 28.9 57.95 28.41 31.75 41.89"></polygon><polygon class="cls-11" points="5.56 38.71 31.75 52.2 31.75 49.06 5.56 35.58 5.56 38.71"></polygon><polygon class="cls-4" points="57.95 35.58 57.95 38.71 48.13 43.77 41.34 47.26 31.75 52.2 31.75 49.06 41.34 44.13 48.13 40.63 57.95 35.58"></polygon><polygon class="cls-6" points="31.75 44.49 31.75 44.98 57.95 31.5 57.95 31.01 31.75 44.49"></polygon><polygon class="cls-12" points="5.56 31.5 31.75 44.98 31.75 44.49 5.56 31.01 5.56 31.5"></polygon><rect class="cls-13" x="14.99" y="24.5" width="0.9" height="14.86" rx="0.45" transform="translate(30.88 63.86) rotate(180)"></rect><rect class="cls-14" x="43.67" y="29.09" width="0.9" height="14.86" rx="0.45" transform="translate(88.25 73.03) rotate(180)"></rect><rect class="cls-15" x="51.91" width="0.9" height="20.88" rx="0.45" transform="translate(104.71 20.88) rotate(-180)"></rect><path class="cls-16" d="M44.22,23.06,42,21.94l-10.25-5.2L21.5,21.94l-2.21,1.12h0v2.53h0L20.51,25l1,.5,10.25,5.19L42,25.47l1-.5,1.23.62h0V23.06Zm-5.7.64-6.77,3.43L25,23.7l-1-.5,7.75-3.93,7.76,3.93Z"></path><polygon class="cls-17" points="46.28 21.57 46.28 25.69 46.28 25.69 31.75 33.05 31.75 28.93 42.22 23.63 46.28 21.57 46.28 21.57"></polygon><polygon class="cls-18" points="46.28 21.57 43.7 20.27 31.75 14.21 19.8 20.27 17.23 21.57 17.22 21.57 17.22 21.57 17.22 23.07 17.22 24.52 17.23 24.52 18.65 23.8 19.8 24.38 31.75 30.43 43.7 24.38 44.85 23.8 46.28 24.52 46.28 24.52 46.28 23.07 46.28 21.57 46.28 21.57 46.28 21.57"></polygon><polygon class="cls-19" points="46.28 21.57 46.28 25.69 46.28 25.69 31.75 33.05 31.75 28.93 42.22 23.63 46.28 21.57 46.28 21.57"></polygon><polygon class="cls-20" points="31.75 28.93 31.75 33.05 17.23 25.69 17.22 25.69 17.22 21.57 17.23 21.57 21.29 23.63 31.75 28.93"></polygon><path class="cls-21" d="M47.08,6.93h0l0-.11s0,0,0,0L47,6.55l-.1-.21a.83.83,0,0,0-.07-.13l0-.06a4.57,4.57,0,0,0-3.07-2c-3.11-.77-2.43,3-2.43,3L42,8.44l1.5.21a5.5,5.5,0,0,0,1.74.08l.06,0c-1.74,3.72-5.19,11-5.59,11.74a4,4,0,0,1-4.49,2.2C32.52,22.09,24.1,20,22.62,19.58a2.52,2.52,0,0,1-.88-.59l.29.88a1.78,1.78,0,0,0,1.3,1.18c1.46.44,9.88,2.5,12.61,3.07a4,4,0,0,0,4.5-2.21C40.94,21,46.33,9.54,47,8.14A2,2,0,0,0,47.08,6.93Z"></path><path class="cls-5" d="M45.74,7.79c0,.06,0,.11-.06.15s0,0,0,.06c-1.59,3.42-5.49,11.69-5.92,12.45a4,4,0,0,1-4.49,2.2C32.52,22.09,24.1,20,22.62,19.58a2.52,2.52,0,0,1-.88-.59L21,16.63,23,16.22l.35.24C25.38,13,29.54,5.94,30.14,5a3.22,3.22,0,0,1,3.09-1.57c.78.08,7.38,1,10.55,1.5-.37.27-.35.55.41.76C46.05,6.17,45.9,7.31,45.74,7.79Z"></path><path class="cls-22" d="M21.19,15S28.24,3,29.05,1.67A3.23,3.23,0,0,1,32.14.1c1,.11,11.11,1.57,12.15,1.73a2.28,2.28,0,0,1,1.57,3c-.63,1.38-6,12.88-6.52,13.76a4,4,0,0,1-4.5,2.2c-2.72-.56-11.15-2.62-12.61-3.06A1.74,1.74,0,0,1,21.19,15Z"></path><path class="cls-23" d="M23,14.38S29,4.06,29.68,2.94A2.74,2.74,0,0,1,32.32,1.6c.85.09,9.52,1.34,10.41,1.48a1.93,1.93,0,0,1,1.34,2.59c-.53,1.19-5.15,11-5.58,11.78a3.4,3.4,0,0,1-3.85,1.89c-2.33-.48-9.55-2.25-10.8-2.63A1.48,1.48,0,0,1,23,14.38Z"></path><path class="cls-6" d="M30.59,5.74l0,0s0,.13-.1.33a.29.29,0,0,0,0,.24l0,.08q0,.09-.15,0a1.56,1.56,0,0,0-.65.12,2.25,2.25,0,0,1-1,.08v0h0a1.24,1.24,0,0,1,.47-.08,4.32,4.32,0,0,0,.89-.2c.07,0,.11-.05.12-.07h0a.54.54,0,0,0,0-.22.11.11,0,0,1,0-.08.57.57,0,0,1,.37-.21Zm-2.35,2.5h0c.06,0,.07.09,0,.18l0,0a2,2,0,0,1-.52.39.56.56,0,0,1-.21.08h0a3.59,3.59,0,0,1,.52-.37l0,0h0s0-.05-.13-.1a.18.18,0,0,1,0-.06c0-.06.11-.09.25-.09ZM29.81,5.6a.57.57,0,0,1-.08.27v0c.1,0,.16,0,.17,0h0c0,.07-.14.11-.31.12h-.05s0-.1,0-.2.16-.23.21-.21Zm6.29-.89s0,0,0,.06h0a1.83,1.83,0,0,1-.75,0q-1.66-.2-2.43-.21s-.06,0-.08,0h0a1.29,1.29,0,0,0,0,.54l1.56.25a12,12,0,0,1,2.53.58.58.58,0,0,1,.35.44.28.28,0,0,1,0,.22v0c-.16.31-.59.55-1.3.71-.29.1-.76.25-1.4.48h0a4.11,4.11,0,0,1,.76-.5A6.1,6.1,0,0,1,36.17,7a2.73,2.73,0,0,0,.63-.17l0,0h0c.08-.15,0-.32-.26-.52l-.11-.06a13.06,13.06,0,0,0-3.3-.68c-.65-.06-1.23-.09-1.77-.1-.12,0-.2,0-.22.07h0s0,.18.22.4c.41.59.79,1.2,1.14,1.81,0,0,0,.06.08.12a3.78,3.78,0,0,0,.6.07,1.11,1.11,0,0,1,.26.06.1.1,0,0,0,.05,0c.33-1.11.5-1.68.51-1.69v0a1.64,1.64,0,0,1,.29-.41h0a3,3,0,0,1,0,1h0s0,0,0,0a.81.81,0,0,1-.1-.17h0a.08.08,0,0,0-.07,0l0,.05a3,3,0,0,0-.22.83.9.9,0,0,0,.18.55c.18.24.25.42.19.54l0,.06c-.09.14-.16.2-.2.18a1.35,1.35,0,0,1-.17-.19,2.12,2.12,0,0,0-.47-.31c-.24-.11-.39-.15-.47-.11l0,0a2.47,2.47,0,0,0,.22.45c.54,1,.86,1.63,1,1.8s.07.1.1.11h0s.06,0,.11-.13.46-1,1.09-2.42L35.49,8a.88.88,0,0,1,.34-.4l.06,0h0a7.3,7.3,0,0,1-.13,1.3l0,0h0s-.08-.15-.13-.38h0v0a13,13,0,0,0-1.1,2.69c0,.05.06.16.22.35a.67.67,0,0,0,.22.18l0,0a1.12,1.12,0,0,0,.55.08c.06,0,.13-.09.22-.26s.48-1.14,1.08-2.67l1-2.49,0-.09a.65.65,0,0,1,.26-.31h0s0,.16,0,.44a3.22,3.22,0,0,1-.07.82v0a.05.05,0,0,1-.06,0A4.1,4.1,0,0,1,37.88,7c-1,2.5-1.56,3.95-1.76,4.37l0,.09q-.41.84-.81.87a.88.88,0,0,1-.57-.07h0a1.83,1.83,0,0,1-.54-.39h0a6.61,6.61,0,0,1-.34.92,3.75,3.75,0,0,1-.18.38,4.29,4.29,0,0,1-.93,1.36h0a8.53,8.53,0,0,1,.64-1.39c.25-.55.48-1.11.7-1.68Q33,9.38,32.78,9a.26.26,0,0,0-.08-.12c0,.13,0,.36,0,.69a1.14,1.14,0,0,1-.12.52,1,1,0,0,1-.87.62,2,2,0,0,1-.51,0,5.52,5.52,0,0,0-1-.12,3.27,3.27,0,0,0-.68.07,1.46,1.46,0,0,0-.79.78h0a1.12,1.12,0,0,0,0,1.26,1.73,1.73,0,0,0,.65.55l.12.06a4.35,4.35,0,0,0,2.31.27c.37-.05.58-.13.64-.23a9.36,9.36,0,0,0,.2-1.38,1.7,1.7,0,0,1,.12-.44l.2-.28h0a4.45,4.45,0,0,1,.2.89v0h0L33,12h0v0a4,4,0,0,0-.09.59,2,2,0,0,1-.17.57h0a1.2,1.2,0,0,1-.85.63,1.26,1.26,0,0,0-.5.27,1.38,1.38,0,0,0-.33.45l0,.07a.45.45,0,0,0,0,.5.53.53,0,0,0,.11.09c.22.1.81-.05,1.77-.48a2.86,2.86,0,0,1,.74-.18,8.43,8.43,0,0,1,1.1,0c.22,0,.34,0,.35,0a4.79,4.79,0,0,0,.39-.61,1.34,1.34,0,0,1,.47-.45.54.54,0,0,1,.42,0c.16.08.18.33,0,.76l0,.07a2,2,0,0,1-.64.59,1.72,1.72,0,0,1-.41.15c.07.24.15.38.25.43h0a1.18,1.18,0,0,0,.64,0,.31.31,0,0,0,.26-.19s0,0,0,0a.08.08,0,0,1,0-.05l0-.08q.31-.63,2.17-5.08c.3-.71.47-1.11.51-1.18.15-.26.25-.4.31-.39s0,.24,0,.67a1.72,1.72,0,0,1-.09.57h0a1.42,1.42,0,0,1-.13-.37h0c-.76,1.82-1.22,3-1.39,3.42s-.4.9-.71,1.53l0,0a4.51,4.51,0,0,1-.69,1.17,1.24,1.24,0,0,1-.83.42,1,1,0,0,1-.44-.09h0q-.23-.1-.24-.57c0-.13,0-.2-.06-.24A5.18,5.18,0,0,0,33.7,15a4,4,0,0,0-.91.17,6.85,6.85,0,0,0-.88.36,1,1,0,0,1-.78.09l-.05,0a.58.58,0,0,1-.3-.5,1.13,1.13,0,0,1,.12-.57,2.83,2.83,0,0,1,.27-.39l0,0a.13.13,0,0,0,0-.06l0,0h-.34a4.63,4.63,0,0,1-1.71-.37l-.06,0a1.36,1.36,0,0,1-.87-1.32,1.46,1.46,0,0,1,.18-.6,4,4,0,0,1,.61-.82h0a2.18,2.18,0,0,0-.54.11.94.94,0,0,1-.54,0,.58.58,0,0,1-.29-.67,1.76,1.76,0,0,1,.15-.44,2.86,2.86,0,0,1,.78-.92.33.33,0,0,0,.06-.08.71.71,0,0,0,0-.35,1.22,1.22,0,0,1,.1-.53l0-.08A3.54,3.54,0,0,1,30,6.68c.1-.07.17-.1.2-.08a0,0,0,0,1,0,.05,2.68,2.68,0,0,1-.46.35,3.33,3.33,0,0,0-1,.92.4.4,0,0,0,0,.49l.08.05a1.13,1.13,0,0,0,.8,0c.45-.09,1.17-.29,2.17-.6q-.24-.54-.81-1.56a2.16,2.16,0,0,1-.2-.51.44.44,0,0,1,0-.32.89.89,0,0,1,.3-.34,1.55,1.55,0,0,1,.56-.06,9.29,9.29,0,0,0,.93,0c-.08-.21-.1-.35,0-.43v0a.61.61,0,0,1,.3-.29,17,17,0,0,1,2.45.23A3.84,3.84,0,0,1,36.1,4.71Zm-4,3.57a5.55,5.55,0,0,0-.6.11l-1.57.45a2.15,2.15,0,0,1-1,.12.31.31,0,0,0-.25,0,2.82,2.82,0,0,0-.64.65c-.06.09-.11.18-.16.27a.53.53,0,0,0-.08.43.44.44,0,0,0,.17.16A1.73,1.73,0,0,0,29,10.39a4.29,4.29,0,0,1,1.1-.25,3.6,3.6,0,0,1,.84,0,2.92,2.92,0,0,0,1.34.1.29.29,0,0,0,.1-.08A3.1,3.1,0,0,0,32.31,9a4.5,4.5,0,0,0-.22-.7ZM30.32,5.91a.16.16,0,0,0,0,.15h0A.18.18,0,0,0,30.41,6h0a.09.09,0,0,0,0-.1h0S30.34,5.87,30.32,5.91Zm-2.15,5.37c0,.06.06.1,0,.13h0a1.36,1.36,0,0,1-.52.45s-.06,0-.08,0h0a2.8,2.8,0,0,1,.27-.25.58.58,0,0,0,.08-.1c0-.06,0-.12-.1-.17h0A.26.26,0,0,1,28.17,11.28Zm3.7-7.1a0,0,0,0,0,0,0,3,3,0,0,1-.31.32l-.07.11,0,0a.21.21,0,0,0,0,.11h.09l0,0s0,0,0,0h0c0,.07-.12.1-.25.08h0s0-.1,0-.22v0A1.07,1.07,0,0,1,31.87,4.18ZM29.66,9.09s0,0,0,0h0a3.07,3.07,0,0,1-.36.37l-.05,0c0,.2,0,.3,0,.31s.09,0,.2-.08h.05c-.18.2-.32.28-.42.23s-.09-.15,0-.31a1.44,1.44,0,0,1,.56-.61ZM30.91,7V7s-.12.15-.34.39a1.15,1.15,0,0,0-.14.2c-.05.11-.05.19,0,.22a.39.39,0,0,0,.17,0h0a.5.5,0,0,1-.19.2.2.2,0,0,1-.13,0c-.07,0-.1-.15-.08-.34l0-.06A3.65,3.65,0,0,1,30.81,7Zm-.08,4.24s0,0,0,0-.24.14-.61.16a.71.71,0,0,0-.41.25,3.22,3.22,0,0,0-.21.29.71.71,0,0,0-.05.43s.08,0,.17-.06l.06,0s0,0,0,0c-.16.19-.27.27-.35.23h0c-.07,0-.09-.16,0-.37l0-.09s.14-.21.37-.55l0-.06h0a1.73,1.73,0,0,0-.47,0l0,0s0,0,0,0h0a1.66,1.66,0,0,1,.56-.11A4.78,4.78,0,0,1,30.83,11.19Zm.79-2a1.07,1.07,0,0,1,.2.34.22.22,0,0,1,0,.15.73.73,0,0,1-.35.22h0l-.25-.49-.44.19a3.56,3.56,0,0,1-.23-.5.89.89,0,0,1,.37-.19h0a1.68,1.68,0,0,1,.27.43,2.69,2.69,0,0,1,.38-.17Zm1.81-3.05c.06,0,.07.12,0,.27a.16.16,0,0,0,0,0c0,.06-.08.09-.12.07s0,0-.06-.14h0s-.12.06-.23.24q-.34.56-.42.51h0s0-.12,0-.32a.81.81,0,0,0-.11-.37h0s0,0,0,0a.26.26,0,0,1,0-.32c0-.07.1-.09.14-.07h0c.07,0,.16.26.27.67h0C33.14,6.33,33.34,6.13,33.43,6.17ZM30.91,11.9h0a.63.63,0,0,1,.21.39.07.07,0,0,1,0,.05h0c-.14.18-.25.26-.32.22h0c-.06,0-.14-.16-.22-.4a.19.19,0,0,1,0-.08C30.72,11.92,30.83,11.86,30.91,11.9Zm2.29-1.58c.08,0,.07.17,0,.38s0,.16,0,.17a.11.11,0,0,1,0,.11v0a.1.1,0,0,1-.11,0L33,11s-.15,0-.3.1a6.89,6.89,0,0,1-.82.24,3.08,3.08,0,0,1-.87.12v0h0a4.89,4.89,0,0,1,.73-.2,6.67,6.67,0,0,0,.86-.23q.22-.06.27-.15s0-.09,0-.25l0-.09h0a.28.28,0,0,1,.24-.17Zm-1,1.58h0a3.6,3.6,0,0,0-.42.55.25.25,0,0,0,0,.29s.08,0,.21-.07,0,0,0,0c-.16.2-.28.27-.37.23s-.11-.16-.07-.35l.05-.1A1.21,1.21,0,0,1,32.19,11.9ZM33,10.49a.11.11,0,0,0,0,.09h0s.06,0,.07,0,0-.12-.07-.13S33,10.45,33,10.49Zm2.79-4.3h0s0,0,0,0a4.05,4.05,0,0,1-.39.3,1,1,0,0,0-.19.21q0,.09,0,.12h.19v0h0c-.15.15-.25.21-.32.18s-.07-.11,0-.26v0a1.92,1.92,0,0,1,.58-.51A.47.47,0,0,1,35.75,6.19Zm-1,2.89h0a1.6,1.6,0,0,0-.49.49q0,.15,0,.21s0,0,.12,0,0,0,0,0l0,0a.31.31,0,0,1-.27.16h0a.27.27,0,0,1,0-.26l0,0a1.35,1.35,0,0,1,.49-.5A.27.27,0,0,1,34.7,9.08Zm2.67-3.76h0c.15.07.21.16.18.26v0c0,.06-.18.08-.45.07l-.14,0s-.06,0-.05-.05h.29l.06,0s0-.05-.07-.09h0l-.42-.16h0a1.07,1.07,0,0,1,.45,0ZM32.79,15.56c.06,0,.07.1,0,.21a.84.84,0,0,1-.61.4h0a1.15,1.15,0,0,0,.45-.35h0a0,0,0,0,0,0-.06l-.12,0s0,0,0,0h0C32.65,15.58,32.74,15.53,32.79,15.56Zm4.05-7.91h0a2.07,2.07,0,0,0-.29.4q-.06.18,0,.21c.06,0,.09.06.08.09s-.2.18-.26.15h0c-.06,0-.08-.12,0-.26a.2.2,0,0,1,0-.08A1.12,1.12,0,0,1,36.84,7.65Zm-1,2.47h0a2.63,2.63,0,0,1-.37.43l-.09.14c-.05.1-.05.17,0,.21h0l.09,0a.06.06,0,0,1,0,.09.27.27,0,0,1-.26.12h0c-.06,0-.05-.18,0-.45a4.66,4.66,0,0,1,.6-.56Zm-1,3c.08.06.11.11.09.16s-.11.06-.19,0l-.08,0a.27.27,0,0,0-.31,0v0c0,.06,0,.13.13.21l.11.07.31.15c.09,0,.12.08.11.12s-.15.07-.33,0a5.8,5.8,0,0,0-.77-.09h0s0,0,0,0a.31.31,0,0,1,.21-.11h.06a.86.86,0,0,0,0-.27.1.1,0,0,1,0,0,.94.94,0,0,1,.56-.24Zm-.36,2.6c.07,0,.09.14.08.3l0,.1c0,.08-.07.11-.08.11a1.7,1.7,0,0,1-.11-.23l0,0h0c-.07,0-.26.12-.57.47a1.43,1.43,0,0,0-.13.13h0V16.3a.91.91,0,0,0-.06-.4c-.11-.12-.15-.19-.13-.22a.26.26,0,0,1,0-.21c0-.06.08-.08.13-.06h0a1.4,1.4,0,0,1,.23.63.34.34,0,0,1,0,.14l0,.05s.09-.05.18-.2C34.28,15.79,34.45,15.69,34.52,15.72Zm1-3c.21.12.31.2.32.25h0c0,.07-.16.1-.38.09a.79.79,0,0,1-.28-.05v0c.17,0,.27,0,.28-.05h0s0-.05-.08-.09a1,1,0,0,1-.19-.08h0s-.06-.05,0-.08A.38.38,0,0,1,35.51,12.7ZM37.9,8.14h0c-.13.19-.21.32-.25.39l0,.05c-.06.14-.07.21,0,.23l.14-.06s0,0,0,.09-.17.15-.26.1a.2.2,0,0,1,0-.25l0-.08a1.92,1.92,0,0,1,.44-.48Zm1-1a4.48,4.48,0,0,1,0,1c0,.13,0,.21,0,.24h0c-.08-.18-.13-.28-.16-.29h0l0,.06c-.09.17-.42,1-1,2.43,0,.09,0,.13,0,.14h0a.54.54,0,0,0,.24-.06l0,0h0a.71.71,0,0,0,0-.22.35.35,0,0,1,0-.12h0c0-.09.16-.15.36-.16h0c.05,0,0,.15-.08.36s-.2.32-.26.29a.75.75,0,0,0-.6.4,4.48,4.48,0,0,1-.72,1.09l-.05,0a4,4,0,0,1,.41-1c.07-.18.09-.27.07-.28a2.35,2.35,0,0,0-.54,0h0s0,0,0,0h0a1.24,1.24,0,0,1,.4-.08c.2,0,.31-.07.35-.15s.31-.79.77-1.85c.28-.67.47-1.1.57-1.3l.06-.13c.1-.19.18-.3.24-.32Zm-2.49,5.2c.08.2.13.34.16.42a.79.79,0,0,1,.47-.08c.08,0,.13.16.14.35a.43.43,0,0,1,0,.05c0,.05-.15.11-.37.17a4.4,4.4,0,0,0-.24-.43l-.44.15h0s0-.15-.12-.4A2.6,2.6,0,0,1,36.44,12.35ZM35.56,14c-.16.38-.2.6-.12.64a1.12,1.12,0,0,0,.48-.1.27.27,0,0,0,.12-.1c.11-.34.1-.54,0-.61a.45.45,0,0,0-.36.05A.36.36,0,0,0,35.56,14Zm2.5-3.75c0,.06,0,.12.07.19h0v0c0-.07,0-.13,0-.2S38.09,10.25,38.06,10.28ZM39.89,10h0a3.52,3.52,0,0,1,0,1.15l0,.07v0h0s-.08-.15-.12-.39h0l0,0c-.14.28-.53,1.21-1.18,2.78-.13.29-.22.49-.28.61l-.12.24a2.52,2.52,0,0,1-.77,1s0-.1.1-.26l0-.08c.09-.2.19-.39.3-.59.23-.47.8-1.77,1.72-3.92,0-.09.09-.21.16-.34l0-.09C39.77,10,39.83,10,39.89,10Zm-.18,2.35v0a1.92,1.92,0,0,1-.32.32.79.79,0,0,0-.18.22.37.37,0,0,0,0,.32s.07,0,.16-.06h0s0,0,0,0c-.17.2-.29.28-.35.25s-.08-.12,0-.26L39,13a2.09,2.09,0,0,1,.57-.68A.17.17,0,0,1,39.71,12.31Z"></path></g></g></svg>